<svg xmlns="http://www.w3.org/2000/svg" width="20" height="20" viewBox="0 0 20 20" >
<path d="M6.842 6.4331l-6.309.7332c-.2275.0289-.4287.1883-.5042.4306s0 .4947.1677.6541c1.8754 1.7941 4.6934 4.4808 4.6934 4.4808-.0024 0-.7736 3.9083-1.2862 6.516-.0431.236.0383.4859.2347.6353.1952.1494.4467.1519.6443.0352 2.2084-1.3158 5.5161-3.2944 5.5161-3.2944l5.5138 3.2957c.2012.1155.4527.113.6479-.0364.1964-.1494.2778-.3992.2335-.634l-1.2826-6.5172 4.6934-4.4771c.1677-.1645.2419-.4168.1677-.6579s-.2754-.4005-.503-.4281c-2.5245-.2963-6.3102-.7357-6.3102-.7357l-2.6144-6.064c-.0982-.2172-.3042-.3691-.5461-.3691s-.4491.1532-.5425.3691l-2.6144 6.064z" fill="#fece3c"></path>
</svg>